<svg height="404" viewBox="0 0 700 404" width="700" xmlns="http://www.w3.org/2000/svg"><g fill="none" fill-rule="evenodd"><g transform="translate(35 59)"><rect fill="#535f72" height="314.5" rx="8" width="263"/><text fill="#fff" font-family="SourceSansPro-Semibold, Source Sans Pro" font-size="16" font-weight="500"><tspan x="88.02" y="29">Assessment</tspan></text><text fill="#fff" font-family="SourceSansPro-Light, Source Sans Pro" font-size="14" font-weight="300"><tspan x="36.457" y="50">Acts as the "blank" test blueprint</tspan></text><g fill="#96a1b3"><circle cx="131.5" cy="297" r="4"/><circle cx="112.5" cy="297" r="4"/><circle cx="150.5" cy="297" r="4"/></g><g transform="translate(15 74)"><rect fill="#96a1b3" height="53" rx="8" width="233"/><text fill="#fff" font-family="SourceSansPro-Regular, Source Sans Pro" font-size="14"><tspan x="52.118" y="31.5">Classic Code Challenge</tspan></text></g><g transform="translate(15 147)"><rect fill="#96a1b3" height="53" rx="8" width="233"/><text fill="#fff" font-family="SourceSansPro-Regular, Source Sans Pro" font-size="14"><tspan x="48.25" y="31.5">Project Code Challenge</tspan></text></g><g transform="translate(15 220)"><rect fill="#96a1b3" height="53" rx="8" width="233"/><text fill="#fff" font-family="SourceSansPro-Regular, Source Sans Pro" font-size="14"><tspan x="70.279" y="31.5">Q &amp; A Challenge</tspan></text></g><g transform="translate(367)"><rect fill="#205b20" height="315" rx="8" width="263"/><g fill="#4bb05d"><circle cx="131.5" cy="297" r="4"/><circle cx="112.5" cy="297" r="4"/><circle cx="150.5" cy="297" r="4"/></g><text fill="#fff" font-family="SourceSansPro-Light, Source Sans Pro" font-size="14" font-weight="300"><tspan x="14.194" y="50">Stores the result of taking the assessment</tspan></text><text fill="#fff" font-family="SourceSansPro-Semibold, Source Sans Pro" font-size="16" font-weight="500"><tspan x="64.58" y="29">Assessment Result</tspan></text><g transform="translate(15 74)"><rect fill="#4bb05d" height="53" rx="8" width="233"/><text fill="#fff" font-family="SourceSansPro-Regular, Source Sans Pro" font-size="14"><tspan x="56.542" y="31.5">Classic Code Solution</tspan></text></g><g transform="translate(15 147)"><rect fill="#4bb05d" height="53" rx="8" width="233"/><text fill="#fff" font-family="SourceSansPro-Regular, Source Sans Pro" font-size="14"><tspan x="52.674" y="31.5">Project Code Solution</tspan></text></g><g transform="translate(15 220)"><rect fill="#4bb05d" height="53" rx="8" width="233"/><text fill="#fff" font-family="SourceSansPro-Regular, Source Sans Pro" font-size="14"><tspan x="74.703" y="31.5">Q &amp; A Solution</tspan></text></g></g><path d="m313 145 34 17-34 17v-10h-30v-14h30z" fill="#96a1b3" fill-rule="nonzero"/></g><text fill="#262f34" font-family="SourceSansPro-Light, Source Sans Pro" font-size="18" font-weight="300"><tspan x="266.426" y="37">Parts of an Assessment</tspan></text></g></svg>