<svg height="1350" viewBox="0 0 1000 1350" width="1000" xmlns="http://www.w3.org/2000/svg" xmlns:xlink="http://www.w3.org/1999/xlink"><linearGradient id="a" x1="53.38916%" x2="53.38916%" y1="9.163365%" y2="100%"><stop offset="0" stop-color="#212123"/><stop offset="1" stop-color="#353536"/></linearGradient><linearGradient id="b" x1="50%" x2="50%" y1="0%" y2="100%"><stop offset="0" stop-color="#212123"/><stop offset="1" stop-color="#353536"/></linearGradient><linearGradient id="c" x1="46.016406%" x2="48.555469%" y1="44.520538%" y2="54.648875%"><stop offset="0" stop-color="#212123"/><stop offset="1" stop-color="#212123"/></linearGradient><linearGradient id="d" x1="50%" x2="55.899347%" y1="41.892593%" y2="55.159682%"><stop offset="0" stop-color="#212123"/><stop offset="1" stop-color="#353536"/></linearGradient><linearGradient id="e" x1="54.464063%" x2="54.464063%" y1="0%" y2="66.881794%"><stop offset="0" stop-color="#212123"/><stop offset="1" stop-color="#353536"/></linearGradient><linearGradient id="f" x1="50%" x2="50%" y1="0%" y2="100%"><stop offset="0" stop-color="#212123"/><stop offset="1" stop-color="#353536"/></linearGradient><g fill="none" fill-rule="evenodd"><path d="m0 0h1000v1350h-1000z" fill="#353536"/><g fill-rule="nonzero" opacity=".65" transform="translate(-20)"><g transform="matrix(-1 0 0 1 1020 0)"><path d="m.63484213 62.0736447 999.13532687-62.0736447.229831 347h-999.36515787z" fill="url(#a)"/><path d="m698.094283 18.6001363 301.675886-18.58196562v63.69602622z" fill="#28282B"/></g><path d="m20 273.886597 1000-80.386597v308h-1000z" fill="url(#b)"/><g transform="translate(20 387)"><path d="m584.382812 50.6875 415.617188-21.6875v63.6960263z" fill="#28282B"/><path d="m0 80.3865967 1000-80.3865967v368h-1000z" fill="url(#c)" transform="matrix(-1 0 0 1 1000 0)"/></g><g transform="translate(0 601.5)"><path d="m20.6348421 62.0918154 999.1353279-62.07364472.22983 347.00000032h-999.3651579z" fill="url(#d)"/><path d="m.32411434 45.0819656 301.67588566-18.5819656v63.6960263z" fill="#28282B" transform="matrix(-1 0 0 1 302.324114 0)"/></g><g transform="translate(20 810)"><path d="m584.382812 50.6875 415.617188-21.6875v63.6960263z" fill="#28282B"/><path d="m0 80.3865967 1000-80.3865967v368h-1000z" fill="url(#e)" transform="matrix(-1 0 0 1 1000 0)"/></g><path d="m20 1122.3866 1000-80.3866v308h-1000z" fill="url(#f)"/></g></g></svg>
