<svg width="539" height="95" viewBox="0 0 539 95" xmlns="http://www.w3.org/2000/svg"><path d="M94.525 93.672H44.762c-6.098 0-11.871-1.098-17.32-3.293-5.447-2.196-10.204-5.245-14.27-9.148-4.065-3.903-7.277-8.558-9.635-13.965C1.18 61.858 0 55.943 0 49.519c0-6.342 1.138-12.217 3.415-17.624 2.277-5.408 5.428-10.103 9.453-14.088 4.025-3.984 8.74-7.094 14.148-9.33C32.423 6.24 38.298 5.123 44.64 5.123c6.099 0 11.811 1.097 17.137 3.293 5.326 2.195 9.981 5.224 13.965 9.086 3.985 3.863 7.135 8.416 9.453 13.66C87.512 36.409 88.67 42.12 88.67 48.3c0 3.66-.427 7.258-1.28 10.795-.854 3.537-2.115 6.85-3.782 9.94a34.617 34.617 0 0 1-6.22 8.294 29.812 29.812 0 0 1-8.477 5.854v.244h25.613v10.246zm-50.25-10.977c4.716 0 9.045-.875 12.99-2.623 3.943-1.748 7.317-4.147 10.122-7.196 2.806-3.05 4.98-6.647 6.526-10.794 1.545-4.147 2.317-8.579 2.317-13.295 0-4.553-.793-8.822-2.378-12.806-1.586-3.985-3.802-7.44-6.647-10.368-2.846-2.927-6.22-5.244-10.124-6.952-3.903-1.707-8.172-2.561-12.807-2.561-4.553 0-8.76.854-12.623 2.561-3.863 1.708-7.217 4.025-10.063 6.952-2.846 2.928-5.082 6.363-6.708 10.307-1.626 3.943-2.44 8.151-2.44 12.623 0 4.717.773 9.148 2.318 13.295s3.72 7.765 6.525 10.855c2.806 3.09 6.16 5.53 10.063 7.318 3.903 1.79 8.212 2.684 12.928 2.684zm110.99 10.977h-10.977v-8.904h-.243c-1.383 3.09-3.781 5.59-7.197 7.501-3.415 1.91-7.358 2.866-11.83 2.866-2.846 0-5.53-.427-8.05-1.28a18.108 18.108 0 0 1-6.648-3.964c-1.91-1.79-3.435-4.086-4.573-6.892-1.139-2.805-1.708-6.118-1.708-9.94v-37.2h10.977v34.15c0 2.684.366 4.981 1.098 6.892.732 1.91 1.707 3.456 2.927 4.635a10.984 10.984 0 0 0 4.208 2.561c1.586.529 3.232.793 4.94.793 2.276 0 4.39-.366 6.342-1.098 1.952-.732 3.66-1.89 5.123-3.476 1.463-1.585 2.602-3.598 3.415-6.037.813-2.44 1.22-5.326 1.22-8.66v-29.76h10.977v57.813zm16.832-50.74c3.09-2.845 6.668-4.98 10.733-6.402 4.066-1.423 8.132-2.135 12.197-2.135 4.229 0 7.867.529 10.916 1.586 3.05 1.057 5.55 2.48 7.502 4.269 1.951 1.788 3.394 3.842 4.33 6.159a19.215 19.215 0 0 1 1.402 7.257v29.516c0 2.033.04 3.903.122 5.61.081 1.708.203 3.335.366 4.88h-9.758a105.7 105.7 0 0 1-.365-8.782h-.244c-2.44 3.74-5.326 6.383-8.66 7.928-3.334 1.545-7.196 2.317-11.587 2.317-2.683 0-5.245-.366-7.684-1.097-2.44-.732-4.574-1.83-6.403-3.294-1.83-1.463-3.273-3.272-4.33-5.427s-1.586-4.655-1.586-7.501c0-3.74.833-6.871 2.5-9.392 1.667-2.52 3.944-4.574 6.83-6.16 2.887-1.585 6.262-2.723 10.124-3.414 3.862-.691 7.989-1.037 12.38-1.037h8.05v-2.44c0-1.463-.285-2.927-.854-4.39a11.855 11.855 0 0 0-2.561-3.964c-1.139-1.18-2.562-2.114-4.27-2.805-1.707-.692-3.74-1.037-6.098-1.037-2.114 0-3.964.203-5.55.61-1.585.406-3.028.914-4.33 1.524a19.007 19.007 0 0 0-3.536 2.135 314.536 314.536 0 0 1-3.05 2.317l-6.586-6.83zm30.98 22.93c-2.602 0-5.265.143-7.989.428-2.724.284-5.204.833-7.44 1.646-2.236.813-4.065 1.952-5.488 3.415-1.423 1.464-2.135 3.334-2.135 5.611 0 3.334 1.118 5.732 3.354 7.196 2.236 1.464 5.265 2.196 9.087 2.196 3.009 0 5.57-.509 7.684-1.525s3.822-2.338 5.123-3.964a15.362 15.362 0 0 0 2.805-5.428c.57-1.992.854-3.964.854-5.915v-3.66h-5.855zM236.01 1.465h10.977v92.208h-10.977V1.464zm29.272 34.395h10.977v57.813h-10.977V35.859zm-2.561-20.735c0-2.195.792-4.086 2.378-5.671 1.586-1.586 3.476-2.379 5.672-2.379 2.195 0 4.086.793 5.671 2.379 1.586 1.585 2.379 3.476 2.379 5.671 0 2.196-.793 4.086-2.379 5.672-1.585 1.585-3.476 2.378-5.671 2.378-2.196 0-4.086-.793-5.672-2.378-1.586-1.586-2.378-3.476-2.378-5.672zm35.249 30.248h-12.441V35.86h12.44V22.93c0-7.725 1.484-13.477 4.452-17.258C305.388 1.89 310.49 0 317.727 0c1.22 0 2.5.04 3.842.122 1.342.081 2.785.325 4.33.732l-1.22 9.757a15.714 15.714 0 0 0-3.049-.854 19.32 19.32 0 0 0-3.17-.243c-2.034 0-3.66.304-4.88.914a6.877 6.877 0 0 0-2.866 2.623c-.69 1.138-1.138 2.5-1.341 4.086-.204 1.585-.305 3.394-.305 5.427V35.86h13.05v9.513h-13.172v48.3h-10.977v-48.3zm37.2-9.513h10.977v57.813h-10.977V35.859zm-2.561-20.735c0-2.195.792-4.086 2.378-5.671 1.586-1.586 3.476-2.379 5.671-2.379 2.196 0 4.086.793 5.672 2.379 1.586 1.585 2.378 3.476 2.378 5.671 0 2.196-.792 4.086-2.378 5.672-1.586 1.585-3.476 2.378-5.672 2.378-2.195 0-4.085-.793-5.671-2.378-1.586-1.586-2.378-3.476-2.378-5.672zM371.88 68.79c0 2.52.55 4.818 1.647 6.891a17.145 17.145 0 0 0 4.33 5.306c1.789 1.464 3.862 2.602 6.22 3.415a22.293 22.293 0 0 0 7.318 1.22c3.415 0 6.383-.793 8.904-2.379 2.52-1.585 4.838-3.679 6.952-6.281l8.294 6.342c-6.098 7.888-14.636 11.831-25.613 11.831-4.554 0-8.68-.772-12.38-2.317-3.7-1.545-6.83-3.68-9.392-6.403-2.561-2.724-4.533-5.936-5.915-9.636-1.382-3.7-2.074-7.704-2.074-12.014s.753-8.314 2.257-12.014c1.504-3.7 3.578-6.911 6.22-9.635 2.643-2.724 5.794-4.859 9.453-6.404 3.659-1.544 7.643-2.317 11.953-2.317 5.122 0 9.452.894 12.99 2.683 3.536 1.79 6.443 4.127 8.72 7.014 2.277 2.886 3.923 6.139 4.94 9.757a40.628 40.628 0 0 1 1.524 11.038v3.903h-46.348zm34.64-8.782c-.082-2.439-.468-4.675-1.16-6.708-.69-2.033-1.727-3.801-3.11-5.305-1.382-1.505-3.11-2.684-5.183-3.538-2.074-.853-4.493-1.28-7.257-1.28-2.684 0-5.143.508-7.38 1.524-2.236 1.017-4.126 2.338-5.67 3.964a18.307 18.307 0 0 0-3.599 5.428c-.854 1.992-1.28 3.964-1.28 5.915h34.638zm82.816 33.664H478.36v-8.294h-.244c-2.114 3.09-5.021 5.488-8.721 7.196-3.7 1.707-7.501 2.561-11.404 2.561-4.472 0-8.517-.772-12.136-2.317-3.618-1.545-6.708-3.7-9.27-6.464-2.56-2.765-4.533-5.977-5.915-9.636-1.382-3.659-2.073-7.643-2.073-11.953s.69-8.314 2.073-12.014c1.382-3.7 3.354-6.911 5.916-9.635 2.56-2.724 5.65-4.859 9.27-6.404 3.618-1.544 7.663-2.317 12.135-2.317 4.147 0 8.05.874 11.709 2.622 3.659 1.749 6.464 4.127 8.416 7.136h.244V1.463h10.977v92.209zm-30.004-8.782c2.927 0 5.57-.508 7.928-1.525 2.358-1.016 4.35-2.398 5.976-4.147 1.626-1.748 2.887-3.862 3.781-6.342.894-2.48 1.342-5.184 1.342-8.11 0-2.928-.448-5.632-1.342-8.112-.894-2.48-2.155-4.594-3.781-6.342-1.626-1.748-3.618-3.13-5.976-4.147-2.359-1.016-5.001-1.525-7.928-1.525-2.928 0-5.57.509-7.928 1.525-2.358 1.016-4.35 2.399-5.977 4.147-1.626 1.748-2.886 3.862-3.78 6.342-.895 2.48-1.342 5.184-1.342 8.111 0 2.927.447 5.631 1.341 8.111.895 2.48 2.155 4.594 3.781 6.342 1.626 1.749 3.619 3.13 5.977 4.147 2.358 1.017 5 1.525 7.928 1.525z"/><ellipse cx="529.122" cy="13.193" rx="9.498" ry="9.498"/><path d="M536.241 56.47c.51-.576.95-1.215 1.308-1.902h-16.854a9.518 9.518 0 0 0 1.309 1.902h14.237zm-1.81 1.59a9.453 9.453 0 0 1-5.309 1.62 9.453 9.453 0 0 1-5.308-1.62h10.617zm3.771-5.082c.188-.61.315-1.247.377-1.902h-18.913c.061.655.19 1.292.377 1.902h18.159zm.393-3.492a9.468 9.468 0 0 0-.335-1.902h-18.275a9.468 9.468 0 0 0-.335 1.902h18.945zm-.946-3.492a9.509 9.509 0 0 0-1.24-1.902h-14.574a9.509 9.509 0 0 0-1.239 1.902h17.053zm-2.939-3.492a9.455 9.455 0 0 0-5.588-1.817c-2.088 0-4.02.675-5.587 1.817h11.175zM536.493 91.164c.332-.408.631-.845.893-1.305H520.86c.261.46.56.897.893 1.305h14.741zm-2.534 2.186a9.453 9.453 0 0 1-4.837 1.321 9.453 9.453 0 0 1-4.836-1.321h9.673zm4.329-5.677c.115-.424.202-.86.258-1.305h-18.847c.056.445.143.881.258 1.305h18.33zm.28-3.49a9.466 9.466 0 0 0-.228-1.306h-18.435c-.106.424-.183.86-.229 1.305h18.893zm-1.07-3.492a9.508 9.508 0 0 0-.845-1.305h-15.061c-.316.41-.599.846-.845 1.305h16.75zm-3.213-3.49a9.453 9.453 0 0 0-5.163-1.525c-1.903 0-3.676.56-5.162 1.524h10.325z"/></svg>