<?xml version="1.0" encoding="UTF-8"?>
<svg width="400px" height="300px" viewBox="0 0 400 300" version="1.1" xmlns="http://www.w3.org/2000/svg" xmlns:xlink="http://www.w3.org/1999/xlink">
    <title>sections/for-candidates</title>
    <defs>
        <radialGradient cx="50%" cy="50%" fx="50%" fy="50%" r="680.367953%" gradientTransform="translate(0.500000,0.500000),scale(0.067916,1.000000),scale(1.000000,0.068728),translate(-0.500000,-0.500000)" id="radialGradient-1">
            <stop stop-color="#000000" offset="0%"></stop>
            <stop stop-color="#000000" stop-opacity="0" offset="100%"></stop>
        </radialGradient>
    </defs>
    <g id="sections/for-candidates" stroke="none" stroke-width="1" fill="none" fill-rule="evenodd">
        <path d="M362.795556,214.928889 C363.28,213.911111 363.577778,212.8 363.577778,211.613333 L363.577778,32.6977778 C363.577778,28.4622222 360.151111,25.0311111 355.911111,25.0311111 L44.0888889,25.0311111 C39.8533333,25.0311111 36.4222222,28.4622222 36.4222222,32.6977778 L36.4222222,211.613333 C36.4222222,212.808889 36.7155556,213.924444 37.2044444,214.928889 L0,214.928889 L0,227.297778 C0,231.524444 3.43111111,234.964444 7.66666667,234.964444 L392.324444,234.964444 C396.56,234.964444 400,231.537778 400,227.297778 L400,214.928889 L362.795556,214.928889 L362.795556,214.928889 L362.795556,214.928889 Z" id="Shape" fill="#71828A"></path>
        <path d="M196.977778,32.1955556 L196.977778,32.1955556 C196.977778,30.5288889 198.328889,29.1688889 200,29.1688889 C201.666667,29.1688889 203.022223,30.5244444 203.022223,32.1911111 L203.022223,32.1911111 L203.022223,32.1911111 C203.022223,33.8577778 201.671111,35.2133333 200,35.2133333 C198.328889,35.2133333 196.977778,33.8666667 196.977778,32.1955556 L196.977778,32.1955556 L196.977778,32.1955556 L196.977778,32.1955556 Z" id="Shape-path" fill="#FFFFFF"></path>
        <polygon id="Shape-path" fill="#FFFFFF" points="49.52 39.8133333 350.475556 39.8133333 350.475556 202.351111 49.52 202.351111 49.52 39.8133333"></polygon>
        <path d="M222.142223,224.96 L222.142223,224.96 C222.142223,226.631111 220.795556,227.986667 219.128889,227.986667 L180.862223,227.986667 C179.195556,227.986667 177.84,226.631111 177.84,224.964444 L177.84,224.96 L177.84,224.955556 C177.84,223.28 179.195556,221.924444 180.862223,221.924444 L219.128889,221.924444 C220.8,221.928889 222.142223,223.28 222.142223,224.96 L222.142223,224.96 L222.142223,224.96 L222.142223,224.96 Z" id="Shape-path" fill="#FFFFFF"></path>
        <g id="Group-2" transform="translate(68.000000, 54.000000)">
            <path d="M260.68,0 C263.41448,0.619213271 265.141707,2.00705867 266,4.05450081 L266,4.05450081 L266,135.828469 C264.89876,140.81179 257.621,139.88297 248.266667,139.88297 L248.266667,139.88297 L18.3983333,139.88297 C16.7064276,139.88297 14.9189395,139.940394 13.1488324,139.974792 L12.4860776,139.986456 C12.0450784,139.993302 11.606048,139.998081 11.1707515,139.999535 L10.5208278,139.999066 C5.23959136,139.972306 0.65110484,139.352342 0,135.828469 L0,135.828469 L0,4.05450081 C0.860066667,2.00705867 2.58552,0.619213271 5.32,0 L5.32,0 Z M255.995631,8.11034774 L132.117389,8.11034774 C131.986211,8.14111712 131.995196,8.41496467 132.005079,8.68881222 L132.005079,8.68881222 L132.005079,130.909434 L255.883321,130.909434 C255.971372,130.866356 256.014499,130.747894 255.995631,130.523278 L255.995631,130.523278 L255.995631,8.11034774 Z" id="Combined-Shape" fill="#212F34"></path>
            <g id="Group" transform="translate(154.678325, 31.199529)">
                <polygon id="Combined-Shape" fill="#212F34" points="69.8849049 4.94290439 69.8849049 12.1282538 26.7728086 12.1282538 26.7728086 4.94290439"></polygon>
                <polygon id="Combined-Shape" fill="#212F34" points="69.8849049 34.8767494 69.8849049 42.0636864 26.7728086 42.0636864 26.7728086 34.8767494"></polygon>
                <polygon id="Combined-Shape" fill="#212F34" points="26.7728086 71.5768702 26.7728086 64.3915209 69.8849049 64.3915209 69.8849049 71.5768702"></polygon>
                <polyline id="Combined-Shape" fill="#4BB05D" points="4.06577105 4.70397486 8.30141226 8.94279122 17.2442035 3.55271368e-15 21.3099745 4.06418347 8.30299983 17.0711582 7.10542736e-14 8.7697459"></polyline>
                <polyline id="Combined-Shape" fill="#771A26" points="5.50093584 77.5048629 1.43833993 73.4406794 6.59159757 68.2858342 1.43833993 63.130989 5.50411098 59.0668055 10.6541935 64.2200631 15.8074511 59.0668055 19.8732222 63.130989 14.7199645 68.2858342 19.8732222 73.4390918 15.8074511 77.5032753 10.6541935 72.3500176"></polyline>
                <polyline id="Combined-Shape" fill="#4BB05D" points="17.2473786 29.5234578 21.3099745 33.5876412 8.30299983 46.5962035 7.10542736e-14 38.2916161 4.06577105 34.2274326 8.3045874 38.466249"></polyline>
            </g>
            <path d="M59.9104928,47.0000352 L59.9104928,40.3421506 C48.7736677,40.3421506 44.5368321,43.3079356 45.4447255,51.5395019 L46.3526188,60.1947518 C46.8368286,64.7342186 43.144729,66.1263217 38,66.1263217 L38,73.8736783 C43.2052552,73.8736783 46.8368286,75.2657814 46.3526188,79.8052482 L45.4447255,88.5210243 C44.5973583,96.6315382 48.7736677,99.6578494 59.9104928,99.6578494 L59.9104928,92.9999648 C56.2183932,92.9999648 53.9789229,92.2131239 54.281554,89.1868128 L55.1894474,80.2289317 C55.9157621,73.3894685 52.2236625,70.9684196 45.8078828,70 C51.9210313,69.0921067 55.9157621,66.5500053 55.1894474,59.7710683 L54.281554,50.8131872 C53.9789229,47.7868761 56.157867,47.0000352 59.9104928,47.0000352 L59.9104928,47.0000352 Z M76.0104682,40.3421506 L76.0104682,47.0000352 C79.7025678,47.0000352 82.0025643,47.7868761 81.6394069,50.8131872 L80.7315136,59.7710683 C80.0051989,66.6105315 83.6972985,69.0315804 90.1736044,70 C83.9999296,70.9078933 80.0051989,73.4499947 80.7315136,80.2289317 L81.6394069,89.1868128 C82.0025643,92.2131239 79.763094,92.9999648 76.0104682,92.9999648 L76.0104682,99.6578494 C87.1472932,99.6578494 91.3841289,96.6920644 90.4762355,88.4604981 L89.5683422,79.8052482 C89.0841324,75.2657814 92.776232,73.8736783 97.920961,73.8736783 L97.920961,66.1263217 C92.7157058,66.1263217 89.0841324,64.7342186 89.5683422,60.1947518 L90.4762355,51.4789757 C91.3236026,43.3684618 87.1472932,40.3421506 76.0104682,40.3421506 L76.0104682,40.3421506 Z" id="{}" fill="#FFFFFF"></path>
        </g>
        <g id="shadows" transform="translate(24.977778, 255.000000)" fill="url(#radialGradient-1)" opacity="0.2">
            <ellipse id="Oval-3-Copy-3" cx="172" cy="12.1141897" rx="171.692727" ry="11.6607242"></ellipse>
        </g>
    </g>
</svg>