<?xml version="1.0" encoding="UTF-8"?>
<svg width="400px" height="300px" viewBox="0 0 400 300" version="1.1" xmlns="http://www.w3.org/2000/svg" xmlns:xlink="http://www.w3.org/1999/xlink">
    <title>sections/integrations</title>
    <defs>
        <radialGradient cx="50%" cy="50%" fx="50%" fy="50%" r="680.367953%" gradientTransform="translate(0.500000,0.500000),scale(0.067916,1.000000),scale(1.000000,0.068728),translate(-0.500000,-0.500000)" id="radialGradient-1">
            <stop stop-color="#000000" offset="0%"></stop>
            <stop stop-color="#000000" stop-opacity="0" offset="100%"></stop>
        </radialGradient>
    </defs>
    <g id="sections/integrations" stroke="none" stroke-width="1" fill="none" fill-rule="evenodd">
        <g id="Group-2" transform="translate(29.000000, 58.448184)">
            <g id="Group-3" transform="translate(123.264989, 0.028901)">
                <path d="M139.616784,0.199703884 L0.116783609,0.199703884 L0.116783609,18.843848 L0.196955655,18.843848 L0.196955655,59.2955714 C1.54005618,64.4632336 1.55897308,94.0848044 0.196955655,99.3252505 L0.196955655,140.18056 L0.116783609,140.18056 L0.116783609,158.824704 L139.616784,158.824704 L139.616784,0.199703884 Z" id="Combined-Shape" fill="#6ABE79"></path>
                <circle id="Oval-2" stroke="#6ABE79" stroke-width="4" fill="#FFFFFF" cx="138.889961" cy="79.3491736" r="77.3125"></circle>
                <g id="qualified-icon-color-black" transform="translate(83.352505, 40.787092)" fill-rule="nonzero">
                    <g id="Group" transform="translate(94.270830, 0.000000)" fill="#6ABE79">
                        <circle id="Oval" cx="8.14153895" cy="8.14153895" r="8.14153895"></circle>
                        <circle id="Oval" opacity="0.8" cx="8.14153895" cy="38.993636" r="8.14153895"></circle>
                        <circle id="Oval" opacity="0.4" cx="8.14153895" cy="67.2751254" r="8.14153895"></circle>
                    </g>
                    <path d="M80.5069287,75.4166644 L38.1236285,75.4166644 C32.9300208,75.4166644 28.0127966,74.4817669 23.3729173,72.611972 C18.733038,70.7421771 14.6814952,68.1451328 11.2187696,64.8208393 C7.75652462,61.4965458 5.02104829,57.5320038 3.01234057,52.9267325 C1.00459419,48.3214613 0,43.283109 0,37.8121563 C0,32.4104197 0.969505494,27.4076367 2.90851648,22.8014041 C4.84752747,18.1966135 7.53109176,14.1969828 10.95969,10.8034732 C14.387327,7.40996366 18.403781,4.76148807 23.009533,2.85660444 C27.6143236,0.95220148 32.6180678,0 38.0198045,0 C43.2138929,0 48.0787244,0.934897465 52.6152603,2.80469239 C57.1513155,4.67448732 61.1158575,7.25422753 64.5093671,10.5434323 C67.9028766,13.8331178 70.5864409,17.7116205 72.5600599,22.1784596 C74.533679,26.6452987 75.5209691,31.5101302 75.5209691,36.7734347 C75.5209691,39.8895994 75.1571042,42.9543327 74.4298549,45.9666732 C73.7026056,48.9794945 72.629276,51.8014909 71.2093855,54.4331431 C69.8079706,57.0401903 68.0219776,59.4213523 65.9114729,61.4965458 C63.8125369,63.5650614 61.3695276,65.2523968 58.6918534,66.4829861 L58.6918534,66.6906343 L80.5069287,66.6906343 L80.5069287,75.4166644 Z M37.7083322,66.0676897 C41.725267,66.0676897 45.4129448,65.3226558 48.7713656,63.8340298 C52.1302672,62.3449232 55.0041756,60.3020882 57.3935717,57.7055246 C59.782487,55.1079997 61.6354586,52.0437471 62.9510444,48.5118054 C64.2671109,44.9798637 64.9246634,41.2056658 64.9246634,37.1887311 C64.9246634,33.3107091 64.2498069,29.6749433 62.8991324,26.2814338 C61.5484579,22.8879242 59.6613589,19.9447997 57.2378355,17.4515796 C54.8138315,14.9588401 51.939923,12.9847404 48.6156295,11.5307225 C45.291336,10.0762239 41.6555702,9.34897465 37.7083322,9.34897465 C33.8303102,9.34897465 30.2464565,10.0762239 26.956771,11.5307225 C23.6670855,12.9847404 20.8104811,14.9588401 18.386477,17.4515796 C15.9629536,19.9447997 14.0585507,22.8706202 12.6732682,26.2295217 C11.2884663,29.5884233 10.595825,33.172277 10.595825,36.9810829 C10.595825,40.9980177 11.2538583,44.7722156 12.5694441,48.3041572 C13.8850299,51.8360989 15.7380014,54.9181362 18.1269168,57.5493078 C20.5158322,60.18096 23.3729173,62.2584032 26.6972108,63.7821178 C30.0210236,65.3058324 33.6913974,66.0676897 37.7083322,66.0676897 L37.7083322,66.0676897 Z" id="Shape" fill="#000000"></path>
                </g>
            </g>
            <g id="Group" transform="translate(0.202489, 0.095608)"></g>
            <path d="M137.116271,158.778901 L137.116271,96.2135119 C138.303658,90.1400184 142.209458,88.8623911 146.885464,88.8623911 C152.513273,88.8623911 154.495797,89.5115962 156.414368,93.3346934 C158.332939,97.1577905 161.471352,99.17754 168.122399,99.17754 C174.773445,99.17754 180.341049,93.5927975 180.341049,79.815221 C180.341049,65.4312688 174.773445,59.8465264 168.122399,59.8465264 C161.471352,59.8465264 158.332939,61.8662758 156.414368,65.689373 C154.495797,69.5124701 152.513273,70.1616753 146.885464,70.1616753 C142.209458,70.1616753 138.303658,68.884048 137.116271,62.8105545 L137.116271,0.228604873 L96.080175,0.228604873 L96.080175,158.778901 L137.116271,158.778901 Z" id="Combined-Shape" fill="#212F34"></path>
            <path d="M84.0180535,0.307239435 L84.0180535,158.38006 C82.5934811,158.456747 81.1590221,158.495586 79.7156667,158.495586 C36.0784677,158.495586 0.5625,122.985077 0.5625,79.3411919 C0.5625,35.7022152 36.0784677,0.191706535 79.7156667,0.191706535 C81.1590221,0.191706535 82.5934811,0.230547679 84.0180535,0.307239435 L84.0180535,0.307239435 Z M10.6986998,84.1613342 C11.3957169,93.9881416 14.0807054,103.176845 18.4959653,111.455022 L34.8267821,111.455022 C32.4068564,103.216113 30.7379422,94.0298638 30.281445,84.1613342 L10.6986998,84.1613342 Z M74.4831297,148.320275 L74.4831297,121.095306 L48.5069703,121.095306 C53.5726159,133.216835 59.5119872,142.076669 62.8768128,146.548308 C66.6318699,147.498102 70.5047327,148.018403 74.4831297,148.320275 Z M74.4831297,10.3621086 C70.8826927,10.6271674 67.3362499,11.0051215 63.91743,11.8052062 C57.5755558,20.2797232 52.7528845,28.6192566 49.1156332,36.7575416 L74.4831297,36.7575416 L74.4831297,10.3621086 Z M74.4831297,46.395372 L45.3630304,46.395372 C42.0325648,56.2025454 40.4397334,65.6072223 40.0274134,74.5259581 L74.4831297,74.5259581 L74.4831297,46.395372 Z M74.4831297,111.455022 L74.4831297,84.1613342 L40.0126877,84.1613342 C40.5109076,94.1501219 42.3663476,103.311828 44.9703447,111.455022 L74.4831297,111.455022 Z M10.7011541,74.5259581 L30.3108965,74.5259581 C30.6692222,65.5753171 32.1000707,56.1829115 35.1482935,46.395372 L19.0285453,46.395372 C18.9941853,46.395372 18.9524624,46.3732838 18.9082853,46.365921 C14.2868654,54.8747975 11.4104426,64.3580102 10.7011541,74.5259581 Z M25.1912566,36.7575416 L38.7389134,36.7575416 C41.3036419,30.4795763 44.423039,24.1083495 48.4112532,17.6242273 C39.3132162,22.2676638 31.4374136,28.7787827 25.1912566,36.7575416 Z M24.516328,121.095306 C30.6176822,129.162418 38.4124934,135.729985 47.4049961,140.498588 C44.302779,135.177779 40.9772219,128.686294 38.0762563,121.095306 L24.516328,121.095306 Z" id="Combined-Shape" fill="#212F34"></path>
        </g>
        <ellipse id="Oval-3-Copy-3" fill="url(#radialGradient-1)" opacity="0.2" cx="196.977778" cy="267.11419" rx="171.692727" ry="11.6607242"></ellipse>
    </g>
</svg>